# xmcd
#
# Track frame offsets: 
#        150
#        13824
#        29452
#        43684
#        55492
#        67410
#        81123
#        96438
#        113343
#        126813
#
# Disc length: 1865 seconds
#
# Revision: 0
# Processed by: cddbd v1.5.2PL0 Copyright (c) Steve Scherf et al.
# Submitted via: ExactAudioCopyFreeDBPlugin 1.0
#
DISCID=8a07470a
DTITLE=Frank Aguiar - Nota 10
DYEAR=2003
DGENRE=Latin
TTITLE0=Volta Amor
TTITLE1=Não Se Vá (Tu T'en Vas)
TTITLE2=Me Ligue Se Quiser
TTITLE3=Alaquitanga
TTITLE4=Namoro ou Amizade
TTITLE5=Viajando Nos Ritmos Brasileiros
TTITLE6=Vai Coração
TTITLE7=Me Aceite Como Sou
TTITLE8=Prenda
TTITLE9=Sonhei Com Você
EXTD=
EXTT0=
EXTT1=
EXTT2=
EXTT3=
EXTT4=
EXTT5=
EXTT6=
EXTT7=
EXTT8=
EXTT9=
PLAYORDER=
